<svg id="_03" data-name="03" xmlns="http://www.w3.org/2000/svg" width="42" height="42" viewBox="0 0 42 42">
  <g id="ic_user_profile_default" fill="#f8f9fa" stroke="#f3f3f5" stroke-width="1">
    <circle cx="21" cy="21" r="21" stroke="none"/>
    <circle cx="21" cy="21" r="20.5" fill="none"/>
  </g>
  <path id="ic_user_profile_default-2" data-name="ic_user_profile_default" d="M-118.2,41.765h2.354a8.448,8.448,0,0,1,8.083,5.995h0a1.662,1.662,0,0,1-.255,1.472,1.662,1.662,0,0,1-1.335.672h-15.66a1.544,1.544,0,0,1-1.24-.624,1.543,1.543,0,0,1-.237-1.367h0a8.661,8.661,0,0,1,8.29-6.149Z" transform="translate(138.141 -19.338)" fill="#e1e1e5"/>
  <circle id="ic_user_profile_default-3" data-name="ic_user_profile_default" cx="5.174" cy="5.174" r="5.174" transform="translate(15.843 10.125)" fill="#e1e1e5"/>
</svg>
